<svg xmlns="http://www.w3.org/2000/svg" viewBox="0 0 322.67 276.96"><defs><style>.cls-1{fill:#bbc49a;}.cls-2{fill:#00c9f2;}.cls-3{fill:#00e2fe;}.cls-4{fill:#0094ce;}.cls-5{fill:#2d3c5f;}</style></defs><title>Asset 2</title><g id="Layer_2" data-name="Layer 2"><g id="back"><path class="cls-1" d="M69.07,272.71l-17.4-38.77-5.4,2.46-12-39.26-6.15,2.42-14.55-45.9,2.36-7.89-11.34-.51L15.21,48.59l22.12,9.09,164.4-2.21,1.54,82.35,41.66,53.11L129.68,265Z"/><polygon class="cls-2" points="5.58 137.74 11.36 85.49 22.7 93.31 169.4 85.99 173.9 139.02 203.46 188.4 117.29 245.19 58.17 248.89 50.31 232.05 30.27 192.22 15.14 153.76 18.49 140.13 5.58 137.74"/><polygon class="cls-3" points="172.87 122.88 171.04 84.7 24.34 92.02 13 84.21 7.22 136.46 20.13 138.85 17.67 148.85 66.23 150.3 172.87 122.88"/><polygon class="cls-4" points="203.17 185.77 191.2 165.45 118.11 218.09 49.78 231.15 54.57 237.67 57.18 241.16 59.24 249.52 121.88 241.17 203.17 185.77"/><path class="cls-5" d="M67,277,48.9,236.72l-5.61,2.56L30.81,198.53,24.42,201,9.32,153.4l2.45-8.19L0,144.67,11.06,44.34l23,9.43,170.63-2.29,1.6,85.48,43.24,55.12L129.87,268.92ZM53.52,224.49l19,42.46L126.64,260,236,189.8l-38.9-49.58-1.48-79.4L32.26,63,18.88,57.52l-8.64,78.39,13.75.63-5,16.78,11.26,35.53,6.47-2.55L49,226.53Z"/><polygon class="cls-5" points="31.85 195.4 31.52 192.65 90.33 185.53 174.31 143.08 175.56 145.55 91.14 188.22 90.9 188.25 31.85 195.4"/><polygon class="cls-5" points="50.1 233.34 49.56 230.63 116.44 217.3 187.26 167.18 188.86 169.43 117.56 219.89 50.1 233.34"/><polygon class="cls-5" points="66.2 143.38 65.98 143.38 17.85 142.26 17.91 139.49 65.83 140.61 169.89 108.95 170.7 111.6 66.2 143.38"/><rect class="cls-5" x="24.06" y="67.12" width="2.77" height="3.23" transform="translate(-44.79 47.79) rotate(-53.09)"/><path class="cls-5" d="M32.14,75.49l-1.27-.95,1.66-2.21.5.37,4.63-.11.07,2.76Zm11.8-.29-.07-2.76,6.21-.16.07,2.77Zm12.42-.3-.07-2.77L62.51,72l.06,2.77Zm12.43-.31-.07-2.76,6.21-.15L75,74.44Zm12.42-.3-.07-2.76,6.22-.16.06,2.77ZM93.63,74l-.06-2.77,6.21-.15.07,2.77Zm12.43-.31L106,70.92l6.21-.15.07,2.76Zm12.42-.3-.06-2.77,6.21-.15.07,2.77Zm12.43-.3-.07-2.77,6.21-.15.07,2.77Zm12.42-.31L143.26,70l6.22-.15.06,2.76Zm12.43-.3-.07-2.77,6.21-.15.07,2.77Zm12.42-.3-.07-2.77,6.22-.15.06,2.76Z"/><polygon class="cls-5" points="182.52 73.67 182.46 71.82 180.6 71.86 180.54 69.1 185.14 68.98 185.28 73.58 182.52 73.67"/><path class="cls-5" d="M212.58,177.92,209,172.8l2.27-1.58,3.55,5.13Zm-7.09-10.25L202,162.54l2.27-1.57,3.55,5.13Zm-7.09-10.26-3.54-5.13,2.27-1.57,3.55,5.13Zm-7.09-10.26L187.77,142l2.27-1.57,3.55,5.13ZM184.49,136l-.19-6.23,2.76-.09.2,6.24Zm-.39-12.46-.2-6.23,2.76-.09.2,6.23Zm-.4-12.46-.2-6.23,2.77-.09.2,6.23Zm-.39-12.46-.2-6.24,2.76-.08.2,6.23Zm-.4-12.47-.19-6.23,2.76-.09.2,6.23Z"/><polygon class="cls-5" points="217.23 187.9 215.66 185.62 217.18 184.57 216.13 183.05 218.4 181.48 221.02 185.27 217.23 187.9"/><path class="cls-5" d="M83.39,258.38l-.51-2.71,6.28-1.19.51,2.72ZM96,256l-.51-2.71,6.28-1.19.51,2.72Zm12.56-2.36-.51-2.72,6.29-1.18.51,2.71Zm12.57-2.37-.51-2.72,6.06-1.14.15.8,1.08,1.57-.43.29Zm12-5.14-1.58-2.27,5.26-3.64,1.57,2.27Zm10.51-7.28-1.58-2.27,5.26-3.64,1.58,2.27Zm10.51-7.28-1.57-2.27,5.25-3.64,1.58,2.27Zm10.52-7.28L163.09,222l5.26-3.64,1.57,2.27ZM175.18,217l-1.58-2.27,5.26-3.64,1.58,2.27Zm10.51-7.28-1.57-2.27,5.25-3.65L191,206.1Zm10.52-7.28-1.58-2.28,5.26-3.64,1.57,2.28Zm10.51-7.28-1.58-2.28,5.26-3.64,1.58,2.28Z"/><rect class="cls-5" x="73.65" y="257.12" width="3.23" height="2.76" transform="translate(-46.51 18.38) rotate(-10.66)"/><polygon class="cls-5" points="60.22 252.21 59.2 243.05 119.46 236.41 196.62 184.05 170.33 138.84 166.4 91.07 25.42 98.31 11.47 88.41 16.81 80.89 28.15 88.94 174.85 81.4 179.35 136.01 208.91 186.85 122.74 245.32 60.22 252.21"/><polygon class="cls-5" points="236.99 188.02 232.82 186.05 271.55 104.09 315.56 79.17 306.39 31.41 266.97 19.47 202.6 69.58 199.77 65.94 266.02 14.37 310.4 27.8 320.71 81.55 275.09 107.38 236.99 188.02"/><polygon class="cls-5" points="144.07 52.28 139.49 51.83 142.3 23.63 124.4 5.71 80.27 12.29 20.16 52.27 17.61 48.43 78.57 7.88 126.02 0.81 147.1 21.92 144.07 52.28"/><polygon class="cls-5" points="313.61 81.23 304.39 33.21 265.16 21.33 267.83 12.51 312.4 26 322.67 79.49 313.61 81.23"/><polygon class="cls-5" points="145.17 61.07 136.01 60.08 139.88 24.47 121.95 6.51 128.48 0 149.52 21.08 145.17 61.07"/></g></g></svg>