<svg xmlns="http://www.w3.org/2000/svg" viewBox="0 0 295.6 322.16"><defs><style>.cls-1{fill:#ff5d00;}.cls-2{fill:#2d3c5f;}.cls-3{fill:#f39a27;}.cls-4{fill:#be3100;}</style></defs><title>Asset 1</title><g id="Layer_2" data-name="Layer 2"><g id="back"><path class="cls-1" d="M205.42,216.47l15.4,26.19a14.63,14.63,0,0,0,12.12,7.21l6.52.23a14.62,14.62,0,0,1,12.12,7.22h0A14.67,14.67,0,0,1,250.34,274h0a57,57,0,0,1-32.27,19.87l-1.61.35a14.66,14.66,0,0,1-15.72-6.9l-1.07-1.82a14.68,14.68,0,0,1,.86-16.19l2-2.63a14.7,14.7,0,0,0,.86-16.2L189,226.12Z"/><path class="cls-2" d="M213.34,299.15a19.22,19.22,0,0,1-16.57-9.5l-1.07-1.82a19.27,19.27,0,0,1,1.13-21.28l2-2.63a10.06,10.06,0,0,0,.59-11.11l-14.32-24.35,7.95-4.67,14.32,24.35a19.25,19.25,0,0,1-1.14,21.27l-1.95,2.64a10,10,0,0,0-.6,11.1l1.07,1.82a10,10,0,0,0,10.77,4.73l1.61-.35a52.62,52.62,0,0,0,29.67-18.25,10.14,10.14,0,0,0,.85-11.45,10,10,0,0,0-8.31-4.94l-6.52-.23A19.17,19.17,0,0,1,216.85,245L201.44,218.8l7.95-4.67,15.4,26.19a10,10,0,0,0,8.31,5l6.52.22A19.19,19.19,0,0,1,255.56,255a19.4,19.4,0,0,1-1.64,21.92A61.82,61.82,0,0,1,219,298.36l-1.61.35A19,19,0,0,1,213.34,299.15Z"/><path class="cls-2" d="M213.09,285.77l-4.28-1.71c10.62-26.67,35.55-20.25,35.8-20.18l-1.21,4.45C242.54,268.1,222.17,263,213.09,285.77Z"/><ellipse class="cls-1" cx="152.99" cy="154.47" rx="91.32" ry="91.42"/><path class="cls-3" d="M122.44,115.68c18.64-23.17,42.74-38.5,67.13-44.87A91.44,91.44,0,0,0,95,225.54q1.81,1.47,3.69,2.82C86.14,194.81,94.05,151,122.44,115.68Z"/><path class="cls-4" d="M181.69,194.64c-18.64,23.16-42.74,38.5-67.13,44.86A91.44,91.44,0,0,0,209.13,84.78q-1.81-1.47-3.69-2.83C218,115.51,210.08,159.34,181.69,194.64Z"/><path class="cls-2" d="M153.16,250.54A96.07,96.07,0,0,1,104.32,71.72,95.18,95.18,0,0,1,177,61.5a96.16,96.16,0,0,1,68.84,117h0a96.06,96.06,0,0,1-92.71,72Zm-.31-182.92a86.86,86.86,0,1,0,84.09,108.6h0a86.86,86.86,0,0,0-84.09-108.6Z"/><path class="cls-4" d="M209.93,105.45l27.2-16a15.25,15.25,0,0,0,7.49-12.61l.23-6.78a15.27,15.27,0,0,1,7.5-12.62h0a15.21,15.21,0,0,1,17.31,1.3h0a59.37,59.37,0,0,1,20.63,33.58l.36,1.67a15.27,15.27,0,0,1-7.16,16.36l-1.89,1.11a15.2,15.2,0,0,1-16.81-.9l-2.74-2a15.2,15.2,0,0,0-16.81-.9L220,122.5Z"/><path class="cls-2" d="M222.3,126.47l-4.68-7.94,25.28-14.9a19.81,19.81,0,0,1,21.91,1.17l2.73,2a10.56,10.56,0,0,0,11.72.63l1.89-1.11a10.63,10.63,0,0,0,5-11.41l-.36-1.68a54.93,54.93,0,0,0-19-31,10.62,10.62,0,0,0-17.3,7.89L249.22,77a19.75,19.75,0,0,1-9.75,16.42l-27.2,16-4.68-7.94,27.19-16a10.56,10.56,0,0,0,5.23-8.8l.24-6.78a19.83,19.83,0,0,1,32.32-14.74,64.14,64.14,0,0,1,22.22,36.19l.36,1.67a19.83,19.83,0,0,1-9.32,21.3l-1.89,1.11a19.77,19.77,0,0,1-21.9-1.17l-2.74-2a10.58,10.58,0,0,0-11.72-.63Z"/><path class="cls-2" d="M280.15,101.84c-27.62-11-21-36.88-20.91-37.14l4.45,1.2-2.22-.6,2.22.6c-.24.9-5.58,22.17,18.17,31.65Z"/><path class="cls-2" d="M142.09,158.88a30.91,30.91,0,0,1-7.77-1c-15.28-3.95-24.74-18.64-21.09-32.74a25.23,25.23,0,0,1,13-16.1,29.71,29.71,0,0,1,21.33-2.3c15.28,4,24.74,18.64,21.09,32.75h0a25.23,25.23,0,0,1-13,16.09A29.09,29.09,0,0,1,142.09,158.88ZM139.77,115a19.86,19.86,0,0,0-9.27,2.24,16.19,16.19,0,0,0-8.35,10.24c-2.37,9.19,4.12,18.84,14.48,21.52a20.55,20.55,0,0,0,14.73-1.54,16.19,16.19,0,0,0,8.35-10.24c2.37-9.18-4.12-18.84-14.48-21.52A21.81,21.81,0,0,0,139.77,115Z"/><path class="cls-2" d="M175.44,207.54a19.69,19.69,0,0,1-4.86-.62c-9.81-2.55-15.83-12.22-13.42-21.57a17,17,0,0,1,8.45-10.72A18.77,18.77,0,0,1,179.36,173c9.81,2.55,15.83,12.22,13.41,21.57h0a17,17,0,0,1-8.44,10.71A18.47,18.47,0,0,1,175.44,207.54Zm-.93-25.94a9.29,9.29,0,0,0-4.48,1.13,7.85,7.85,0,0,0-3.94,4.93c-1.15,4.43,1.91,9.06,6.81,10.33a9.53,9.53,0,0,0,7-.8,7.85,7.85,0,0,0,3.94-4.93c1.14-4.43-1.91-9.06-6.81-10.33A10,10,0,0,0,174.51,181.6Z"/><path class="cls-2" d="M117.48,204.66a17.58,17.58,0,0,1-4.42-.57c-9-2.32-14.46-11.17-12.25-19.72a15.56,15.56,0,0,1,7.73-9.81,17.13,17.13,0,0,1,12.54-1.49c9,2.32,14.46,11.17,12.25,19.72a15.56,15.56,0,0,1-7.73,9.81A17,17,0,0,1,117.48,204.66Zm-.82-22.94a7.85,7.85,0,0,0-3.71.93,6.45,6.45,0,0,0-3.22,4c-.93,3.63,1.59,7.44,5.64,8.49a8,8,0,0,0,5.81-.66,6.44,6.44,0,0,0,3.22-4h0c.94-3.63-1.58-7.44-5.63-8.49A8.48,8.48,0,0,0,116.66,181.72Z"/><path class="cls-2" d="M182.69,263.43l-.83-.14L82.69,246.61l-9.5-102.38L64.27,91.12l.87-.47,73.47-39.72,64.77,82.28,63.27,16.4Zm-97.44-19.2,96.23,16.19L262,151.26l-60.22-15.6-.29-.37L137.87,54.47,67.32,92.61l8.62,51.31Z"/><path class="cls-3" d="M101.28,105.14,86.08,79.29a14.47,14.47,0,0,0-12-7.12L67.68,72a14.47,14.47,0,0,1-12-7.12h0a14.47,14.47,0,0,1,1.22-16.46h0A56.3,56.3,0,0,1,88.8,28.76l1.58-.34a14.44,14.44,0,0,1,15.51,6.8L107,37a14.5,14.5,0,0,1-.85,16l-1.93,2.6a14.48,14.48,0,0,0-.86,16l14.14,24Z"/><path class="cls-2" d="M97.31,107.48,82.1,81.63A9.78,9.78,0,0,0,74,76.78l-6.44-.22A19.09,19.09,0,0,1,53.36,45.47,61.06,61.06,0,0,1,87.82,24.26l1.59-.35a19,19,0,0,1,20.46,9l1,1.79a19.07,19.07,0,0,1-1.12,21.07l-1.93,2.59a9.86,9.86,0,0,0-.58,10.9l14.13,24-8,4.68-14.13-24a19,19,0,0,1,1.13-21.06l1.92-2.6A9.86,9.86,0,0,0,103,39.36l-1.06-1.8a9.84,9.84,0,0,0-10.57-4.64l-1.58.35a51.8,51.8,0,0,0-29.24,18,9.91,9.91,0,0,0-.84,11.22,9.81,9.81,0,0,0,8.15,4.85l6.43.22A19,19,0,0,1,90.05,77l15.2,25.84Z"/><path class="cls-2" d="M69.32,59.1a29.07,29.07,0,0,1-6.73-.72l1.2-4.45c.86.23,20.94,5.27,29.89-17.19L98,38.44C90.9,56.16,77.44,59.1,69.32,59.1Z"/><path class="cls-3" d="M71.07,150.12,41.22,145a12.23,12.23,0,0,0-11.17,3.73l-3.69,4a12.22,12.22,0,0,1-11.17,3.72h0a12.23,12.23,0,0,1-9.84-9.88h0a47.74,47.74,0,0,1,5.07-31.23l.66-1.21A12.23,12.23,0,0,1,24,107.92l1.73.32a12.21,12.21,0,0,1,9.74,9.38l.6,2.67a12.22,12.22,0,0,0,9.74,9.37l25.27,4.89Z"/><path class="cls-2" d="M17.42,161.23a17.55,17.55,0,0,1-3.05-.27A16.92,16.92,0,0,1,.81,147.36,52.54,52.54,0,0,1,6.37,113.1L7,111.89a16.8,16.8,0,0,1,17.8-8.5l1.73.31A16.81,16.81,0,0,1,40,116.61l.6,2.67a7.6,7.6,0,0,0,6.07,5.85l23.17,4.22-1.66,9.07L45,134.2a16.81,16.81,0,0,1-13.41-12.91l-.6-2.67a7.6,7.6,0,0,0-6.07-5.85l-1.73-.31a7.57,7.57,0,0,0-8,3.85l-.66,1.2a43.17,43.17,0,0,0-4.58,28.22A7.61,7.61,0,0,0,23,149.57l3.7-4A16.77,16.77,0,0,1,42,140.43L67,145l-1.65,9.07L40.39,149.5a7.59,7.59,0,0,0-7,2.33l-3.7,4A16.74,16.74,0,0,1,17.42,161.23Z"/><path class="cls-2" d="M15.08,148.75l-2.59-3.81c.6-.42,14.67-10.34,5.41-28.19L22,114.62C30.94,131.87,21.38,144.49,15.08,148.75Z"/><path class="cls-4" d="M148.56,232.08l-9.86,38.17a16,16,0,0,0,3.78,14.93l4.86,5.21a16,16,0,0,1,3.79,14.92h0a16,16,0,0,1-13.81,11.91h0a62.18,62.18,0,0,1-40.2-9.6l-1.5-1a16,16,0,0,1-6.82-17.46l.58-2.23a16,16,0,0,1,13.14-11.82l3.54-.52A16,16,0,0,0,119.2,262.8L126.91,233Z"/><path class="cls-2" d="M130.89,322.16a67,67,0,0,1-36.27-10.67l-1.5-1A20.58,20.58,0,0,1,84.34,288l.58-2.23a20.56,20.56,0,0,1,16.93-15.23l3.53-.52a11.36,11.36,0,0,0,9.36-8.42l7.71-29.83,8.93,2.3L123.66,264a20.56,20.56,0,0,1-16.93,15.23l-3.53.52a11.36,11.36,0,0,0-9.36,8.42l-.57,2.22a11.35,11.35,0,0,0,4.85,12.43l1.5,1a57.74,57.74,0,0,0,37.22,8.88,11.4,11.4,0,0,0,7.13-19.1l-4.86-5.21a20.52,20.52,0,0,1-4.88-19.22l8.3-32.09,8.92,2.3-8.29,32.1A11.38,11.38,0,0,0,145.85,282l4.86,5.21A20.61,20.61,0,0,1,137.8,321.8,66.63,66.63,0,0,1,130.89,322.16Z"/><path class="cls-2" d="M136.52,307.39c-.5-.85-12.35-20.69-37.08-10l-1.83-4.24c28.58-12.3,42.76,11.74,42.9,12Z"/><path class="cls-4" d="M220.47,165.91l26.82,7a13.38,13.38,0,0,0,12.47-3.17l4.35-4.07a13.35,13.35,0,0,1,12.47-3.17h0A13.38,13.38,0,0,1,286.53,174h0a52.21,52.21,0,0,1-8,33.66l-.82,1.26a13.37,13.37,0,0,1-14.58,5.71l-1.86-.49a13.35,13.35,0,0,1-9.88-11l-.44-3a13.38,13.38,0,0,0-9.87-11l-24.93-6.46Z"/><path class="cls-2" d="M266.48,219.68a18.1,18.1,0,0,1-4.53-.58l-1.86-.48a18,18,0,0,1-13.28-14.8l-.44-3a8.75,8.75,0,0,0-6.47-7.22L215,187.18l2.31-8.92,24.93,6.46a17.93,17.93,0,0,1,13.28,14.8l.44,3a8.75,8.75,0,0,0,6.47,7.21l1.87.49a8.76,8.76,0,0,0,9.55-3.74l.81-1.26a47.66,47.66,0,0,0,7.31-30.69,8.75,8.75,0,0,0-14.68-5.5l-4.36,4.06a17.87,17.87,0,0,1-16.77,4.27l-26.81-6.95,2.31-8.92,26.81,7a8.74,8.74,0,0,0,8.17-2.08l4.36-4.07A17.87,17.87,0,0,1,277.74,158a18.07,18.07,0,0,1,13.37,15.55,57,57,0,0,1-8.73,36.64l-.81,1.26A18,18,0,0,1,266.48,219.68Z"/><path class="cls-2" d="M266,207.41c-8.33-19.39,3-32.29,10.17-36.4l2.29,4-1.15-2,1.16,2c-.7.4-17,10.18-8.24,30.58Z"/><path class="cls-3" d="M163.31,77.66l9-34.94a12.89,12.89,0,0,0-3.05-12l-3.91-4.2a12.9,12.9,0,0,1-3.06-12h0a12.89,12.89,0,0,1,11.13-9.59h0a50.14,50.14,0,0,1,32.39,7.73l1.22.79a12.91,12.91,0,0,1,5.49,14.06l-.47,1.8a12.9,12.9,0,0,1-10.59,9.53l-2.85.42a12.87,12.87,0,0,0-10.59,9.52L182,73Z"/><path class="cls-2" d="M186.3,73.93l-8.93-2.31,6.22-24A17.44,17.44,0,0,1,198,34.65l2.85-.42a8.28,8.28,0,0,0,6.8-6.12l.46-1.8a8.27,8.27,0,0,0-3.52-9l-1.22-.78a45.66,45.66,0,0,0-29.41-7,8.3,8.3,0,0,0-5.18,13.9l3.91,4.19a17.43,17.43,0,0,1,4.14,16.33l-6.68,25.86-8.93-2.31,6.69-25.86a8.26,8.26,0,0,0-2-7.73L162,29.64A17.51,17.51,0,0,1,173,.29a54.94,54.94,0,0,1,35.37,8.45l1.22.79A17.48,17.48,0,0,1,217,28.62l-.47,1.8a17.46,17.46,0,0,1-14.38,12.93l-2.85.42a8.25,8.25,0,0,0-6.8,6.12Z"/><path class="cls-2" d="M192.82,27.58C178,27.58,170.58,15,170.49,14.87l4-2.29-2,1.15,2-1.15c.39.67,9.77,16.32,29.32,7.9l1.82,4.24A32.36,32.36,0,0,1,192.82,27.58Z"/><path class="cls-3" d="M89.57,199.46,67,212.75a12.65,12.65,0,0,0-6.22,10.45l-.19,5.63a12.66,12.66,0,0,1-6.21,10.46h0a12.64,12.64,0,0,1-14.36-1.08h0A49.18,49.18,0,0,1,23,210.37l-.3-1.38a12.64,12.64,0,0,1,5.93-13.56l1.57-.93a12.62,12.62,0,0,1,13.93.75l2.27,1.69a12.61,12.61,0,0,0,13.94.74l21-12.35Z"/><path class="cls-2" d="M48,245.63a17.24,17.24,0,0,1-10.87-3.84,54,54,0,0,1-18.7-30.45l-.3-1.38a17.21,17.21,0,0,1,8.1-18.5l1.57-.93a17.18,17.18,0,0,1,19,1l2.26,1.69a8,8,0,0,0,8.85.47l21-12.35,4.68,7.94-21,12.35a17.18,17.18,0,0,1-19-1L41.34,199a8,8,0,0,0-8.84-.47l-1.57.92A8,8,0,0,0,27.16,208l.3,1.39A44.74,44.74,0,0,0,43,234.63a8,8,0,0,0,13-6l.2-5.62a17.16,17.16,0,0,1,8.47-14.27l22.55-13.29,4.68,7.94L69.37,216.72a8,8,0,0,0-4,6.64L65.23,229A17.2,17.2,0,0,1,48,245.63Z"/><path class="cls-2" d="M49.07,233.35l-4.45-1.2,2.23.6-2.23-.6c.19-.73,4.52-18.05-14.82-25.77l1.71-4.29C54.72,211.36,49.13,233.13,49.07,233.35Z"/><rect class="cls-2" x="183.35" y="91.35" width="9.22" height="48.05" transform="translate(-31.4 138.23) rotate(-37.49)"/><circle class="cls-3" cx="142.75" cy="133.5" r="7.65"/><path class="cls-2" d="M142.48,143.13a9.63,9.63,0,0,1-2.49-.33,9.91,9.91,0,0,1-7.11-12.08A9.91,9.91,0,0,1,145,123.61a9.93,9.93,0,0,1,7.11,12.08h0a9.94,9.94,0,0,1-9.58,7.44Zm0-17.07a7.15,7.15,0,0,0-6.9,5.36,7.16,7.16,0,0,0,5.12,8.71,7.14,7.14,0,0,0,8.7-5.13h0a7.16,7.16,0,0,0-5.12-8.71A7,7,0,0,0,142.46,126.06Z"/></g></g></svg>